<svg xmlns="http://www.w3.org/2000/svg" width="172" height="32" viewBox="0 0 172 32" fill="none">
<g clip-path="url(#clip0_747_906)">
<path fill-rule="evenodd" clip-rule="evenodd" d="M124.353 13.7684L124.353 13.7692C124.353 12.9505 124.978 12.4202 125.3 12.2466C126.318 11.7562 127.342 11.1397 128.304 10.3704V16.064C129.468 14.5735 131.122 13.8282 133.266 13.8282C135.328 13.8282 137.085 14.6143 138.534 16.1866C140.004 17.7384 140.74 19.6476 140.74 21.9141C140.74 24.1806 140.004 26.1 138.534 27.6723C137.085 29.2241 135.328 30.0001 133.266 30.0001C131.122 30.0001 129.468 29.2548 128.304 27.7642V29.5713H124.353V13.7684ZM129.499 25.0382C130.295 25.8346 131.306 26.2327 132.531 26.2327C133.756 26.2327 134.767 25.8346 135.563 25.0382C136.38 24.2215 136.788 23.1801 136.788 21.9141C136.788 20.6481 136.38 19.617 135.563 18.8206C134.767 18.0039 133.756 17.5955 132.531 17.5955C131.306 17.5955 130.295 18.0039 129.499 18.8206C128.702 19.617 128.304 20.6481 128.304 21.9141C128.304 23.1801 128.702 24.2215 129.499 25.0382Z" fill="#100823"/>
<path fill-rule="evenodd" clip-rule="evenodd" d="M118.957 14.974H118.958C118.956 14.6596 119.117 14.0255 119.752 13.8981C120.627 13.7883 121.721 13.57 122.908 13.1935V29.5713H118.957V27.7642C117.772 29.2548 116.108 30.0001 113.964 30.0001C111.922 30.0001 110.166 29.2241 108.696 27.6723C107.246 26.1 106.521 24.1806 106.521 21.9141C106.521 19.6476 107.246 17.7384 108.696 16.1866C110.166 14.6143 111.922 13.8282 113.964 13.8282C116.108 13.8282 117.772 14.5735 118.957 16.064V14.974ZM114.699 26.2327C113.474 26.2327 112.463 25.8346 111.667 25.0382C110.871 24.2215 110.472 23.1801 110.472 21.9141C110.472 20.6481 110.871 19.617 111.667 18.8206C112.463 18.0039 113.474 17.5955 114.699 17.5955C115.924 17.5955 116.935 18.0039 117.731 18.8206C118.548 19.617 118.957 20.6481 118.957 21.9141C118.957 23.1801 118.548 24.2215 117.731 25.0382C116.935 25.8346 115.924 26.2327 114.699 26.2327Z" fill="#100823"/>
<path d="M37.9329 21.0933L40.6289 29.5712H42.9768C43.8198 29.5712 44.5636 29.0198 44.8086 28.2131L47.214 20.2908L50.0318 29.5712H52.3992C53.2329 29.5712 53.9708 29.0316 54.2234 28.2371L58.6691 14.2569H55.9305C55.0694 14.2569 54.3143 14.8319 54.0852 15.662L51.8696 23.6906L49.0824 14.2569H46.7749C45.9272 14.2569 45.1804 14.8145 44.9395 15.6272L42.5585 23.6599L39.9731 14.3221L38.2129 17.3539C37.9103 17.9571 37.4352 19.5205 37.9164 21.0407C37.9221 21.0585 37.9275 21.076 37.9329 21.0933Z" fill="#100823"/>
<path d="M99.6867 13.8282C101.361 13.8282 102.739 14.3897 103.822 15.5127C104.924 16.6358 105.475 18.1876 105.475 20.1683V29.5713H101.524V20.6583C101.524 19.6374 101.249 18.8615 100.697 18.3306C100.146 17.7793 99.411 17.5036 98.4921 17.5036C97.4712 17.5036 96.6544 17.8201 96.0419 18.4531C95.4293 19.0861 95.123 20.0356 95.123 21.3015V29.5713H91.1719V15.5332C91.1719 14.8283 91.7433 14.257 92.4481 14.257H95.123V15.9722C96.0827 14.5428 97.6039 13.8282 99.6867 13.8282Z" fill="#100823"/>
<path fill-rule="evenodd" clip-rule="evenodd" d="M145.79 23.5374C146.321 25.4568 147.761 26.4165 150.109 26.4165C151.05 26.4165 151.848 26.2186 152.504 25.8227C153.192 25.4076 154.061 25.1859 154.756 25.5872L156.725 26.7228C155.214 28.9076 152.988 30.0001 150.048 30.0001C147.516 30.0001 145.484 29.2343 143.953 27.7029C142.421 26.1715 141.655 24.2419 141.655 21.9141C141.655 19.6068 142.411 17.6874 143.922 16.1559C145.433 14.6041 147.373 13.8282 149.741 13.8282C151.987 13.8282 153.835 14.6041 155.285 16.1559C156.755 17.7078 157.49 19.6272 157.49 21.9141C157.49 22.4246 157.439 22.9657 157.337 23.5374H145.79ZM145.729 20.4746H153.539C153.315 19.4332 152.845 18.6573 152.13 18.1468C151.436 17.6363 150.64 17.3811 149.741 17.3811C148.68 17.3811 147.802 17.6567 147.107 18.2081C146.413 18.7389 145.954 19.4945 145.729 20.4746Z" fill="#100823"/>
<path fill-rule="evenodd" clip-rule="evenodd" d="M72.7654 14.2569H70.0905V16.064C68.9062 14.5734 67.242 13.8281 65.098 13.8281C63.0561 13.8281 61.3001 14.6143 59.8299 16.1866C58.3802 17.7384 57.6553 19.6476 57.6553 21.9141C57.6553 24.1806 58.3802 26.1 59.8299 27.6723C61.3001 29.2241 63.0561 30 65.098 30C67.242 30 68.9062 29.2548 70.0905 27.7642V29.5712H74.0416V15.5331C74.0416 14.8283 73.4702 14.2569 72.7654 14.2569ZM65.8331 26.2327C64.608 26.2327 63.5972 25.8346 62.8009 25.0382C62.0045 24.2215 61.6064 23.1801 61.6064 21.9141C61.6064 20.6481 62.0045 19.617 62.8009 18.8206C63.5972 18.0038 64.608 17.5955 65.8331 17.5955C67.0583 17.5955 68.069 18.0038 68.8653 18.8206C69.6821 19.617 70.0905 20.6481 70.0905 21.9141C70.0905 23.1801 69.6821 24.2215 68.8653 25.0382C68.069 25.8346 67.0583 26.2327 65.8331 26.2327Z" fill="#100823"/>
<path d="M88.1045 15.5127C87.0223 14.3897 85.644 13.8281 83.9696 13.8281C81.8869 13.8281 80.3657 14.5428 79.406 15.9721V14.2569H76.7311C76.0262 14.2569 75.4549 14.8283 75.4549 15.5331V29.5712H79.406V21.3015C79.406 20.0355 79.7123 19.0861 80.3248 18.4531C80.9374 17.8201 81.7542 17.5036 82.7751 17.5036C83.694 17.5036 84.4291 17.7792 84.9804 18.3306C85.5317 18.8614 85.8073 19.6374 85.8073 20.6583V29.5712H89.7584V20.1683C89.7584 18.1876 89.2071 16.6358 88.1045 15.5127Z" fill="#100823"/>
<path d="M13.0156 10.81L15.8693 8.92383L17.3076 11.4434L24.6061 24.0847L27.8425 18.4791H26.4157C25.4155 18.4791 24.4933 17.939 24.0039 17.0668L21.8002 13.14H37.0953L28.4203 28.1571C27.7615 29.2975 26.5444 30 25.2273 30H21.8565L17.3209 22.1509L14.2395 16.8097L14.2402 16.8085L12.5134 13.8166C11.6528 12.2874 12.4942 11.175 13.0225 10.81H13.0156Z" fill="#5200FF"/>
<path d="M17.3209 22.1509L13.8534 28.1564C13.1946 29.2972 11.9773 30 10.66 30H7.28965L0.397217 18.0622L0.398385 18.0619C-0.519656 16.4772 0.361581 15.366 0.916994 15.0085L3.72097 13.1412L10.0393 24.0848L13.1929 18.6225L17.3209 22.1509Z" fill="#5200FF"/>
<path d="M161.533 29.0273C161.097 29.463 160.574 29.6808 159.964 29.6808C159.354 29.6808 158.831 29.463 158.396 29.0273C157.96 28.5916 157.742 28.0688 157.742 27.4588C157.742 26.8489 157.96 26.326 158.396 25.8903C158.831 25.4547 159.354 25.2368 159.964 25.2368C160.574 25.2368 161.097 25.4547 161.533 25.8903C161.968 26.326 162.186 26.8489 162.186 27.4588C162.186 28.0688 161.968 28.5916 161.533 29.0273Z" fill="#100823"/>
<path fill-rule="evenodd" clip-rule="evenodd" d="M136.096 0C133.056 0 130.592 2.46429 130.592 5.50415C130.592 8.54401 133.056 11.0083 136.096 11.0083H166.166C169.206 11.0083 171.67 8.54401 171.67 5.50415C171.67 2.46429 169.206 0 166.166 0H136.096ZM165.144 1.7478V8.46907H166.559V1.7478H165.144ZM149.495 2.83097C150.095 2.83097 150.588 3.03207 150.976 3.43427C151.371 3.83647 151.568 4.39223 151.568 5.10157V8.46907H150.153V5.27707C150.153 4.91143 150.055 4.63355 149.857 4.44342C149.66 4.24598 149.396 4.14726 149.067 4.14726C148.702 4.14726 148.409 4.2606 148.19 4.4873C147.97 4.71399 147.861 5.05403 147.861 5.50742V8.46907H146.446V1.74786H147.861V3.5988C148.204 3.08691 148.749 2.83097 149.495 2.83097ZM137.667 4.90412C137.476 4.80906 137.381 4.6884 137.381 4.54214C137.381 4.4032 137.44 4.29351 137.557 4.21307C137.681 4.13263 137.835 4.09241 138.018 4.09241C138.427 4.09241 138.72 4.27888 138.895 4.65183L140.102 3.99369C139.89 3.62074 139.601 3.33554 139.235 3.1381C138.87 2.93335 138.464 2.83097 138.018 2.83097C137.425 2.83097 136.928 2.98819 136.526 3.30264C136.131 3.60977 135.933 4.03391 135.933 4.57505C135.933 4.93337 136.029 5.23319 136.219 5.47451C136.416 5.70852 136.654 5.88037 136.932 5.99006C137.21 6.09975 137.487 6.19116 137.765 6.26429C138.043 6.33741 138.277 6.42151 138.467 6.51658C138.665 6.60433 138.763 6.72133 138.763 6.86759C138.763 7.18203 138.511 7.33926 138.007 7.33926C137.451 7.33926 137.093 7.10159 136.932 6.62627L135.703 7.31732C136.113 8.18753 136.88 8.62264 138.007 8.62264C138.636 8.62264 139.158 8.47273 139.575 8.17291C139.999 7.86577 140.211 7.43067 140.211 6.86759C140.211 6.49464 140.113 6.18385 139.915 5.93522C139.725 5.68658 139.491 5.51108 139.213 5.4087C138.935 5.29901 138.657 5.21126 138.38 5.14544C138.102 5.07231 137.864 4.99187 137.667 4.90412ZM141.365 7.78899C141.92 8.34475 142.611 8.62264 143.438 8.62264C143.972 8.62264 144.458 8.49467 144.897 8.23872C145.335 7.97546 145.675 7.62811 145.917 7.19666L144.688 6.49464C144.578 6.72133 144.41 6.90049 144.184 7.03212C143.964 7.15644 143.712 7.2186 143.427 7.2186C143.003 7.2186 142.652 7.07965 142.374 6.80177C142.096 6.51658 141.957 6.15825 141.957 5.7268C141.957 5.28804 142.096 4.92972 142.374 4.65183C142.652 4.36664 143.003 4.22404 143.427 4.22404C143.705 4.22404 143.953 4.28985 144.173 4.42148C144.399 4.55311 144.568 4.73227 144.677 4.95897L145.895 4.24598C145.668 3.81453 145.335 3.47083 144.897 3.21488C144.458 2.95894 143.972 2.83097 143.438 2.83097C142.611 2.83097 141.92 3.10885 141.365 3.66462C140.816 4.22038 140.542 4.90778 140.542 5.7268C140.542 6.54583 140.816 7.23322 141.365 7.78899ZM155.168 8.62264C155.979 8.62264 156.667 8.34475 157.23 7.78899C157.793 7.22591 158.075 6.53851 158.075 5.7268C158.075 4.91509 157.793 4.23135 157.23 3.67559C156.667 3.11251 155.979 2.83097 155.168 2.83097C154.356 2.83097 153.669 3.11251 153.106 3.67559C152.55 4.23135 152.272 4.91509 152.272 5.7268C152.272 6.53851 152.55 7.22591 153.106 7.78899C153.669 8.34475 154.356 8.62264 155.168 8.62264ZM155.168 7.24053C154.744 7.24053 154.389 7.09794 154.104 6.81274C153.826 6.52754 153.687 6.16557 153.687 5.7268C153.687 5.28804 153.826 4.92606 154.104 4.64086C154.389 4.35567 154.744 4.21307 155.168 4.21307C155.592 4.21307 155.947 4.35567 156.232 4.64086C156.517 4.92606 156.66 5.28804 156.66 5.7268C156.66 6.16557 156.517 6.52754 156.232 6.81274C155.947 7.09794 155.592 7.24053 155.168 7.24053ZM163.523 7.78899C162.96 8.34475 162.273 8.62264 161.461 8.62264C160.65 8.62264 159.962 8.34475 159.399 7.78899C158.843 7.22591 158.565 6.53851 158.565 5.7268C158.565 4.91509 158.843 4.23135 159.399 3.67559C159.962 3.11251 160.65 2.83097 161.461 2.83097C162.273 2.83097 162.96 3.11251 163.523 3.67559C164.087 4.23135 164.368 4.91509 164.368 5.7268C164.368 6.53851 164.087 7.22591 163.523 7.78899ZM160.397 6.81274C160.682 7.09794 161.037 7.24053 161.461 7.24053C161.885 7.24053 162.24 7.09794 162.525 6.81274C162.81 6.52754 162.953 6.16557 162.953 5.7268C162.953 5.28804 162.81 4.92606 162.525 4.64086C162.24 4.35567 161.885 4.21307 161.461 4.21307C161.037 4.21307 160.682 4.35567 160.397 4.64086C160.119 4.92606 159.98 5.28804 159.98 5.7268C159.98 6.16557 160.119 6.52754 160.397 6.81274Z" fill="#00CDA8"/>
</g>
<defs>
<clipPath id="clip0_747_906">
<rect width="172" height="32" fill="white"/>
</clipPath>
</defs>
</svg>
